PathFileType	4	(X/Y/Z)	/Users/itak/Documents/Research/Walk-IL/dataset/trc/00211_00009.trc
DataRate	CameraRate	NumFrames	NumMarkers	Units	OrigDataRate	OrigDataStartFrame	OrigNumFrames
100.000000	100.000000	4	53	mm	100.000000	313	627
Frame#	Time	RPSI			LPSI			L3			STRN			T10			C7			CLAV			RBAK			LBAK			LSHO			LUPA			LAEL			LAOL			LWTS			LWPS			LFRA			LIFD			LHPS			RSHO			RUPA			RAEL			RAOL			RWTS			RWPS			RFRA			RIFD			RHTS			RHPS			RBHD			LFHD			RFHD			LBHD			LHIP			RHIP			RASI			LASI			LKNE			LTHI			LANK			LTIP			LTOE			LMT1			LMT5			LHEE			RKNE			RTHI			RANK			RTIP			RTOE			RMT1			RMT5			RHEE			LHTS			
		X1	Y1	Z1	X2	Y2	Z2	X3	Y3	Z3	X4	Y4	Z4	X5	Y5	Z5	X6	Y6	Z6	X7	Y7	Z7	X8	Y8	Z8	X9	Y9	Z9	X10	Y10	Z10	X11	Y11	Z11	X12	Y12	Z12	X13	Y13	Z13	X14	Y14	Z14	X15	Y15	Z15	X16	Y16	Z16	X17	Y17	Z17	X18	Y18	Z18	X19	Y19	Z19	X20	Y20	Z20	X21	Y21	Z21	X22	Y22	Z22	X23	Y23	Z23	X24	Y24	Z24	X25	Y25	Z25	X26	Y26	Z26	X27	Y27	Z27	X28	Y28	Z28	X29	Y29	Z29	X30	Y30	Z30	X31	Y31	Z31	X32	Y32	Z32	X33	Y33	Z33	X34	Y34	Z34	X35	Y35	Z35	X36	Y36	Z36	X37	Y37	Z37	X38	Y38	Z38	X39	Y39	Z39	X40	Y40	Z40	X41	Y41	Z41	X42	Y42	Z42	X43	Y43	Z43	X44	Y44	Z44	X45	Y45	Z45	X46	Y46	Z46	X47	Y47	Z47	X48	Y48	Z48	X49	Y49	Z49	X50	Y50	Z50	X51	Y51	Z51	X52	Y52	Z52	X53	Y53	Z53	

314	3.13	-521.2714233398438	1042.627075195312	-210.1141052246094	-526.8125610351562	1046.399169921875	-329.4967041015625	-530.6570434570312	1132.754272460938	-277.2845764160156	-268.60302734375	1307.681762695312	-299.4462585449219	-520.8197631835938	1256.941162109375	-259.1536865234375	-449.4559631347656	1515.6787109375	-260.2106018066406	-290.1218872070312	1425.465454101562	-290.8133544921875	-519.994384765625	1377.133544921875	-182.3853454589844	-488.9197387695312	1483.863403320312	-364.2630615234375	-412.8418884277344	1487.563354492188	-437.3059387207031	-473.0011901855469	1375.575073242188	-507.4179992675781	-496.1646423339844	1169.990478515625	-543.0807495117188	-553.789794921875	1159.125122070312	-478.0972900390625	-410.3866577148438	930.544921875	-514.2633056640625	-456.4520263671875	916.933837890625	-583.1214599609375	-485.9842529296875	1061.953979492188	-563.8057861328125	-414.2000427246094	734.7469482421875	-528.5313110351562	-443.2860107421875	828.1131591796875	-584.9033203125	-368.4390869140625	1465.329223632812	-106.3139038085938	-377.8361511230469	1399.265014648438	-38.91559982299805	-369.5097351074219	1117.29052734375	-2.081283807754517	-414.6199340820312	1108.0732421875	-85.57518768310547	-211.2225341796875	926.3805541992188	-72.73163604736328	-250.5799255371094	902.669677734375	-1.870361924171448	-332.7315979003906	1052.555786132812	4.202673435211182	-161.6226348876953	737.5985107421875	-84.63146209716797	-149.8992767333984	813.9876098632812	-67.71686553955078	-193.1110229492188	804.1280517578125	-10.13663101196289	-398.3106994628906	1668.709594726562	-215.7258911132812	-198.3059387207031	1708.682250976562	-315.9662475585938	-194.985107421875	1700.80908203125	-216.2546997070312	-358.105712890625	1683.01318359375	-349.1556396484375	-427.3383178710938	987.8359375	-472.330078125	-421.93505859375	1000.891784667969	-104.8477401733398	-328.058349609375	1040.812866210938	-142.0694580078125	-328.417724609375	1032.593994140625	-423.7860412597656	-226.0950012207031	535.0247192382812	-444.1786193847656	-286.4271850585938	667.8060302734375	-473.342041015625	-303.3825378417969	49.71695327758789	-440.1166076660156	-273.6298828125	308.2379760742188	-452.2779541015625	-92.71154022216797	78.58158874511719	-408.6540222167969	-152.9620819091797	66.03814697265625	-359.5414428710938	-180.7911529541016	52.60626983642578	-468.6650695800781	-360.9440612792969	60.89414596557617	-384.3142700195312	-409.5984802246094	509.8235473632812	-168.7276611328125	-367.9315490722656	774.7452392578125	-111.0368499755859	-517.6282348632812	36.08554840087891	-224.2462005615234	-412.6202087402344	392.8373413085938	-195.7995758056641	-303.6121520996094	42.13490295410156	-258.1206665039062	-358.8293151855469	39.79097747802734	-303.1239929199219	-409.1918640136719	36.08789443969727	-192.7995910644531	-577.465087890625	37.40541076660156	-286.0263671875	-387.7838439941406	829.3823852539062	-545.0493774414062	
315	3.14	-516.1640625	1042.348999023438	-210.0441436767578	-521.433837890625	1046.022094726562	-329.6757202148438	-525.2574462890625	1132.419921875	-277.4918518066406	-262.899169921875	1307.0029296875	-299.414794921875	-515.2909545898438	1256.603271484375	-259.4325561523438	-443.5370788574219	1515.240234375	-260.5474243164062	-284.2589111328125	1424.830810546875	-290.8713989257812	-514.4161376953125	1376.821533203125	-182.7597198486328	-482.8895874023438	1483.4453125	-364.67333984375	-406.6716613769531	1486.97705078125	-437.6054992675781	-466.803466796875	1374.935791015625	-507.6521606445312	-490.0029907226562	1169.198608398438	-542.8565063476562	-547.8523559570312	1158.570678710938	-478.0345764160156	-404.2508544921875	929.8858642578125	-512.9801025390625	-450.0594787597656	916.0086669921875	-581.9410400390625	-479.7091979980469	1061.094482421875	-563.2190551757812	-407.9451293945312	734.0198974609375	-526.4774780273438	-436.8629455566406	827.1648559570312	-583.3285522460938	-362.7920837402344	1464.789184570312	-106.4881820678711	-372.3508605957031	1398.70556640625	-39.15879058837891	-364.0156860351562	1116.677856445312	-2.565124034881592	-409.1427307128906	1107.5673828125	-86.05298614501953	-205.5560302734375	926.0213012695312	-73.45169067382812	-244.8763885498047	902.1510009765625	-2.64128589630127	-327.1726379394531	1051.956787109375	3.630312204360962	-155.6812133789062	737.3308715820312	-85.62911224365234	-144.0906066894531	813.7047729492188	-68.58444976806641	-187.3436126708984	803.6903686523438	-11.0524959564209	-392.3450927734375	1668.199340820312	-215.9119415283203	-192.2388610839844	1708.018920898438	-315.9823303222656	-189.0138854980469	1700.098510742188	-216.2664031982422	-352.0586853027344	1682.499633789062	-349.3091735839844	-421.8901672363281	987.385986328125	-472.299560546875	-417.119140625	1000.485656738281	-104.8624420166016	-322.7845153808594	1040.455078125	-142.0289306640625	-322.9329528808594	1031.997436523438	-423.6114196777344	-219.6417236328125	535.19580078125	-443.4626159667969	-280.5379028320312	667.6864013671875	-473.3497619628906	-281.4815673828125	47.7625617980957	-437.6932373046875	-260.3248596191406	307.111328125	-450.8326721191406	-71.76776885986328	82.71393585205078	-405.8783874511719	-131.7780609130859	68.71155548095703	-356.8300170898438	-158.9486694335938	53.9560661315918	-465.9647521972656	-339.2782287597656	57.56618499755859	-382.001953125	-408.1416625976562	509.5472717285156	-168.5513153076172	-364.2625732421875	774.1149291992188	-110.9519577026367	-517.654296875	36.0758056640625	-224.2459564208984	-412.0031127929688	392.6793212890625	-195.5651092529297	-303.6368408203125	42.14593124389648	-258.0606079101562	-358.9304809570312	39.86238098144531	-303.0722961425781	-409.2765502929688	36.0075569152832	-192.7104949951172	-577.6130981445312	37.54790496826172	-286.06689453125	-381.51611328125	828.5991821289062	-543.2584838867188	
316	3.15	-510.9650268554688	1042.019165039062	-210.0726623535156	-515.962158203125	1045.59619140625	-329.8883666992188	-519.783935546875	1132.021606445312	-277.7382202148438	-257.1365051269531	1306.278686523438	-299.3908996582031	-509.7086791992188	1256.203735351562	-259.7626953125	-437.5898132324219	1514.745849609375	-260.9587097167969	-278.3491821289062	1424.147094726562	-290.9570617675781	-508.8084411621094	1376.459228515625	-183.19775390625	-476.7961120605469	1482.951538085938	-365.1651611328125	-400.4217529296875	1486.313354492188	-437.9656066894531	-460.5001525878906	1374.205688476562	-507.9528198242188	-483.7068786621094	1168.3212890625	-542.69140625	-541.7903442382812	1157.923095703125	-478.0396423339844	-398.0058898925781	929.1350708007812	-511.7721252441406	-443.5713806152344	915.0018310546875	-580.8406372070312	-473.3004455566406	1060.147583007812	-562.6974487304688	-401.62548828125	733.1957397460938	-524.5311889648438	-430.3497314453125	826.1397094726562	-581.8380737304688	-357.1149291992188	1464.214721679688	-106.7063751220703	-366.8731384277344	1398.120239257812	-39.44717788696289	-358.6238708496094	1116.035278320312	-3.109687566757202	-403.7893981933594	1107.05224609375	-86.58265686035156	-200.0548553466797	925.5390014648438	-74.17002105712891	-239.3553466796875	901.5426025390625	-3.414324998855591	-321.7186279296875	1051.315063476562	3.012058734893799	-150.0272216796875	736.9092407226562	-86.5963134765625	-138.5081024169922	813.2565307617188	-69.42262268066406	-181.8280029296875	803.1238403320312	-11.94654941558838	-386.3623962402344	1667.651733398438	-216.1785736083984	-186.1067657470703	1707.286499023438	-316.0122375488281	-183.0099792480469	1699.317016601562	-216.2980804443359	-345.9530029296875	1681.936279296875	-349.5283203125	-416.3775024414062	986.8353271484375	-472.2579650878906	-412.1825866699219	1000.0263671875	-104.8713912963867	-317.3464965820312	1040.080322265625	-142.1084747314453	-317.3275451660156	1031.315795898438	-423.4227905273438	-213.3685150146484	535.1735229492188	-442.7538146972656	-274.7391967773438	667.3983764648438	-473.3803405761719	-260.0936889648438	46.18758773803711	-435.0713500976562	-247.3521575927734	306.0567016601562	-449.2969665527344	-51.40750885009766	86.92826080322266	-403.3251037597656	-111.064826965332	71.56549835205078	-354.2203979492188	-137.7372894287109	55.52114868164062	-463.3034362792969	-318.0062255859375	54.68376541137695	-379.3994140625	-406.6174926757812	509.2820434570312	-168.37744140625	-360.5720825195312	773.4829711914062	-110.8451995849609	-517.6837768554688	36.0711784362793	-224.25244140625	-411.3037109375	392.5043640136719	-195.3282012939453	-303.684814453125	42.16521453857422	-257.9977416992188	-359.0374145507812	39.93152618408203	-303.0161743164062	-409.3710632324219	35.92700958251953	-192.616943359375	-577.732666015625	37.69419479370117	-286.0975341796875	-375.1546630859375	827.7184448242188	-541.5623168945312	
317	3.16	-505.6809387207031	1041.638061523438	-210.2016448974609	-510.3900146484375	1045.118041992188	-330.1380310058594	-514.23291015625	1131.556884765625	-278.0299377441406	-251.30859375	1305.510131835938	-299.3766784667969	-504.0719909667969	1255.73828125	-260.1436462402344	-431.6111755371094	1514.192626953125	-261.4411926269531	-272.3928833007812	1423.4130859375	-291.0709838867188	-503.1712951660156	1376.044067382812	-183.6987762451172	-470.642333984375	1482.3759765625	-365.734619140625	-394.0956420898438	1485.567749023438	-438.3841552734375	-454.0948486328125	1373.3818359375	-508.3180847167969	-477.2846984863281	1167.356079101562	-542.5914916992188	-535.6039428710938	1157.177124023438	-478.1158142089844	-391.6470031738281	928.2915649414062	-510.647216796875	-436.9921569824219	913.9107055664062	-579.8302612304688	-466.7682189941406	1059.111572265625	-562.2474975585938	-395.2368469238281	732.2716064453125	-522.70751953125	-423.7484436035156	825.0364990234375	-580.4440307617188	-351.4048461914062	1463.60302734375	-106.9669494628906	-361.4015502929688	1397.505126953125	-39.78009033203125	-353.3320007324219	1115.361694335938	-3.706995010375977	-398.5702209472656	1106.524047851562	-87.1402587890625	-194.7152709960938	924.9321899414062	-74.88889312744141	-234.0149993896484	900.8427124023438	-4.187839031219482	-316.3663635253906	1050.626953125	2.359753131866455	-144.6590118408203	736.3291625976562	-87.54002380371094	-133.1467895507812	812.6442260742188	-70.23828887939453	-176.5486297607422	802.429931640625	-12.81907749176025	-380.3603210449219	1667.06787109375	-216.5264587402344	-179.9102935791016	1706.483276367188	-316.0604553222656	-176.9721984863281	1698.466674804688	-216.3535003662109	-339.7795104980469	1681.32421875	-349.8148803710938	-410.7913513183594	986.1846923828125	-472.2120361328125	-407.1398620605469	999.5191040039062	-104.8856811523438	-311.7763366699219	1039.671264648438	-142.2851867675781	-311.6008911132812	1030.54443359375	-423.2289733886719	-207.2342224121094	534.9609375	-442.0487670898438	-269.0129089355469	666.9338989257812	-473.4209289550781	-239.2744445800781	44.96273040771484	-432.3011474609375	-234.7081756591797	305.0721435546875	-447.6945495605469	-31.67514419555664	91.17818450927734	-400.9573364257812	-90.89193725585938	74.56423950195312	-351.7088012695312	-117.1947860717773	57.25959014892578	-460.6832275390625	-297.2271118164062	52.24038314819336	-376.5857238769531	-405.0023498535156	509.0202026367188	-168.2027282714844	-356.8505859375	772.8603515625	-110.7148361206055	-517.7152709960938	36.07437515258789	-224.2672271728516	-410.4856567382812	392.309814453125	-195.0944671630859	-303.7593688964844	42.18969345092773	-257.9356689453125	-359.1387634277344	39.99521636962891	-302.9530639648438	-409.4712829589844	35.84717178344727	-192.5196075439453	-577.824462890625	37.84773635864258	-286.1207580566406	-368.6976318359375	826.7408447265625	-539.9761352539062	
